<svg xmlns="http://www.w3.org/2000/svg" viewBox="0 0 200 70"><defs>
<pattern id="deck" width="16" height="200" patternUnits="userSpaceOnUse">
  <rect width="16" height="200" fill="#b08b5e"/><rect width="1.4" height="200" fill="#9c764a"/>
  <rect y="0" width="16" height="1.2" fill="#9c764a"/>
</pattern>
<pattern id="cobble" width="20" height="20" patternUnits="userSpaceOnUse" patternTransform="rotate(8)">
  <rect width="20" height="20" fill="#d9d2c4"/><circle cx="5" cy="5" r="4.5" fill="#cfc7b6"/><circle cx="15" cy="13" r="4.5" fill="#d2cabb"/></pattern>
<radialGradient id="canopy" cx="42%" cy="40%" r="62%">
  <stop offset="0%" stop-color="#7fae5a"/><stop offset="60%" stop-color="#5d934a"/><stop offset="100%" stop-color="#487038"/></radialGradient>
<radialGradient id="canopy2" cx="50%" cy="45%" r="60%">
  <stop offset="0%" stop-color="#86b562"/><stop offset="100%" stop-color="#52853f"/></radialGradient>
</defs><path d="M5 10 Q 100 70 195 10" fill="none" stroke="#6b6b6b" stroke-width="1.4"/><circle cx="5" cy="10" r="3.2" fill="#ffd66b" stroke="#e0a93a" stroke-width="0.6"/><circle cx="21" cy="19" r="3.2" fill="#ffd66b" stroke="#e0a93a" stroke-width="0.6"/><circle cx="37" cy="27" r="3.2" fill="#ffd66b" stroke="#e0a93a" stroke-width="0.6"/><circle cx="52" cy="32" r="3.2" fill="#ffd66b" stroke="#e0a93a" stroke-width="0.6"/><circle cx="68" cy="37" r="3.2" fill="#ffd66b" stroke="#e0a93a" stroke-width="0.6"/><circle cx="84" cy="39" r="3.2" fill="#ffd66b" stroke="#e0a93a" stroke-width="0.6"/><circle cx="100" cy="40" r="3.2" fill="#ffd66b" stroke="#e0a93a" stroke-width="0.6"/><circle cx="116" cy="39" r="3.2" fill="#ffd66b" stroke="#e0a93a" stroke-width="0.6"/><circle cx="132" cy="37" r="3.2" fill="#ffd66b" stroke="#e0a93a" stroke-width="0.6"/><circle cx="148" cy="32" r="3.2" fill="#ffd66b" stroke="#e0a93a" stroke-width="0.6"/><circle cx="163" cy="27" r="3.2" fill="#ffd66b" stroke="#e0a93a" stroke-width="0.6"/><circle cx="179" cy="19" r="3.2" fill="#ffd66b" stroke="#e0a93a" stroke-width="0.6"/><circle cx="195" cy="10" r="3.2" fill="#ffd66b" stroke="#e0a93a" stroke-width="0.6"/></svg>