<svg xmlns="http://www.w3.org/2000/svg" viewBox="0 0 162 30"><defs>
<pattern id="deck" width="16" height="200" patternUnits="userSpaceOnUse">
  <rect width="16" height="200" fill="#b08b5e"/><rect width="1.4" height="200" fill="#9c764a"/>
  <rect y="0" width="16" height="1.2" fill="#9c764a"/>
</pattern>
<pattern id="cobble" width="20" height="20" patternUnits="userSpaceOnUse" patternTransform="rotate(8)">
  <rect width="20" height="20" fill="#d9d2c4"/><circle cx="5" cy="5" r="4.5" fill="#cfc7b6"/><circle cx="15" cy="13" r="4.5" fill="#d2cabb"/></pattern>
<radialGradient id="canopy" cx="42%" cy="40%" r="62%">
  <stop offset="0%" stop-color="#7fae5a"/><stop offset="60%" stop-color="#5d934a"/><stop offset="100%" stop-color="#487038"/></radialGradient>
<radialGradient id="canopy2" cx="50%" cy="45%" r="60%">
  <stop offset="0%" stop-color="#86b562"/><stop offset="100%" stop-color="#52853f"/></radialGradient>
</defs><rect x="2" y="2" width="158" height="26" rx="3" fill="#2c2c2e" stroke="#1a1a1c" stroke-width="1.5"/><circle cx="20" cy="15.0" r="11" fill="#5d8a44"/><circle cx="17" cy="13.0" r="6" fill="#79a85b"/><circle cx="23" cy="17.0" r="2.6" fill="#e0607f"/><circle cx="54" cy="15.0" r="11" fill="#5d8a44"/><circle cx="51" cy="13.0" r="6" fill="#79a85b"/><circle cx="88" cy="15.0" r="11" fill="#5d8a44"/><circle cx="85" cy="13.0" r="6" fill="#79a85b"/><circle cx="91" cy="17.0" r="2.6" fill="#e0607f"/><circle cx="122" cy="15.0" r="11" fill="#5d8a44"/><circle cx="119" cy="13.0" r="6" fill="#79a85b"/></svg>