<svg xmlns="http://www.w3.org/2000/svg" viewBox="0 0 100 100"><defs>
<pattern id="deck" width="16" height="200" patternUnits="userSpaceOnUse">
  <rect width="16" height="200" fill="#b08b5e"/><rect width="1.4" height="200" fill="#9c764a"/>
  <rect y="0" width="16" height="1.2" fill="#9c764a"/>
</pattern>
<pattern id="cobble" width="20" height="20" patternUnits="userSpaceOnUse" patternTransform="rotate(8)">
  <rect width="20" height="20" fill="#d9d2c4"/><circle cx="5" cy="5" r="4.5" fill="#cfc7b6"/><circle cx="15" cy="13" r="4.5" fill="#d2cabb"/></pattern>
<radialGradient id="canopy" cx="42%" cy="40%" r="62%">
  <stop offset="0%" stop-color="#7fae5a"/><stop offset="60%" stop-color="#5d934a"/><stop offset="100%" stop-color="#487038"/></radialGradient>
<radialGradient id="canopy2" cx="50%" cy="45%" r="60%">
  <stop offset="0%" stop-color="#86b562"/><stop offset="100%" stop-color="#52853f"/></radialGradient>
</defs><circle cx="50" cy="50" r="46" fill="#cfc8ba" stroke="#9b9384" stroke-width="2"/><line x1="50" y1="50" x2="96" y2="50" stroke="#a9a193" stroke-width="1.2"/><line x1="50" y1="50" x2="83" y2="83" stroke="#a9a193" stroke-width="1.2"/><line x1="50" y1="50" x2="50" y2="96" stroke="#a9a193" stroke-width="1.2"/><line x1="50" y1="50" x2="17" y2="83" stroke="#a9a193" stroke-width="1.2"/><line x1="50" y1="50" x2="4" y2="50" stroke="#a9a193" stroke-width="1.2"/><line x1="50" y1="50" x2="17" y2="17" stroke="#a9a193" stroke-width="1.2"/><line x1="50" y1="50" x2="50" y2="4" stroke="#a9a193" stroke-width="1.2"/><line x1="50" y1="50" x2="83" y2="17" stroke="#a9a193" stroke-width="1.2"/><circle cx="50" cy="50" r="5" fill="#6e6557"/></svg>