<svg xmlns="http://www.w3.org/2000/svg" viewBox="0 0 130 90"><defs>
<pattern id="tile" width="40" height="40" patternUnits="userSpaceOnUse">
 <rect width="40" height="40" fill="#b8b2a8"/><rect width="40" height="40" fill="none" stroke="#9a948a" stroke-width="1.5"/></pattern>
<radialGradient id="gold" cx="40%" cy="35%" r="70%">
 <stop offset="0%" stop-color="#f2d585"/><stop offset="55%" stop-color="#c9a24a"/><stop offset="100%" stop-color="#8c6e2a"/></radialGradient>
<radialGradient id="lampglow" cx="50%" cy="50%" r="50%">
 <stop offset="0%" stop-color="#ffe9b0"/><stop offset="55%" stop-color="#f4cf86" stop-opacity="0.9"/><stop offset="100%" stop-color="#f4cf86" stop-opacity="0"/></radialGradient>
<radialGradient id="crystal" cx="50%" cy="50%" r="50%">
 <stop offset="0%" stop-color="#ffffff"/><stop offset="40%" stop-color="#dce6f0"/><stop offset="100%" stop-color="#9fb0c4"/></radialGradient>
</defs><rect x="2" y="2" width="126" height="86" rx="10" fill="#5a2d2a" stroke="#2c1714" stroke-width="2"/><rect x="2" y="2" width="126" height="18" rx="8" fill="#6e3b34"/><rect x="2" y="2" width="18" height="86" rx="8" fill="#6e3b34"/><circle cx="11.5" cy="25.5" r="1.4" fill="#3a1f1c" opacity="0.8"/><circle cx="11.5" cy="40.5" r="1.4" fill="#3a1f1c" opacity="0.8"/><circle cx="11.5" cy="55.5" r="1.4" fill="#3a1f1c" opacity="0.8"/><circle cx="11.5" cy="70.5" r="1.4" fill="#3a1f1c" opacity="0.8"/><rect x="110" y="2" width="18" height="86" rx="8" fill="#6e3b34"/><circle cx="119.5" cy="25.5" r="1.4" fill="#3a1f1c" opacity="0.8"/><circle cx="119.5" cy="40.5" r="1.4" fill="#3a1f1c" opacity="0.8"/><circle cx="119.5" cy="55.5" r="1.4" fill="#3a1f1c" opacity="0.8"/><circle cx="119.5" cy="70.5" r="1.4" fill="#3a1f1c" opacity="0.8"/><rect x="20" y="20" width="88" height="64" rx="6" fill="#7d453d"/><circle cx="32.0" cy="32.0" r="1.4" fill="#3a1f1c" opacity="0.8"/><circle cx="32.0" cy="48.0" r="1.4" fill="#3a1f1c" opacity="0.8"/><circle cx="32.0" cy="64.0" r="1.4" fill="#3a1f1c" opacity="0.8"/><circle cx="48.0" cy="32.0" r="1.4" fill="#3a1f1c" opacity="0.8"/><circle cx="48.0" cy="48.0" r="1.4" fill="#3a1f1c" opacity="0.8"/><circle cx="48.0" cy="64.0" r="1.4" fill="#3a1f1c" opacity="0.8"/><circle cx="64.0" cy="32.0" r="1.4" fill="#3a1f1c" opacity="0.8"/><circle cx="64.0" cy="48.0" r="1.4" fill="#3a1f1c" opacity="0.8"/><circle cx="64.0" cy="64.0" r="1.4" fill="#3a1f1c" opacity="0.8"/><circle cx="80.0" cy="32.0" r="1.4" fill="#3a1f1c" opacity="0.8"/><circle cx="80.0" cy="48.0" r="1.4" fill="#3a1f1c" opacity="0.8"/><circle cx="80.0" cy="64.0" r="1.4" fill="#3a1f1c" opacity="0.8"/><circle cx="96.0" cy="32.0" r="1.4" fill="#3a1f1c" opacity="0.8"/><circle cx="96.0" cy="48.0" r="1.4" fill="#3a1f1c" opacity="0.8"/><circle cx="96.0" cy="64.0" r="1.4" fill="#3a1f1c" opacity="0.8"/></svg>