<svg xmlns="http://www.w3.org/2000/svg" viewBox="0 0 80 80"><defs>
<pattern id="tile" width="40" height="40" patternUnits="userSpaceOnUse">
 <rect width="40" height="40" fill="#b8b2a8"/><rect width="40" height="40" fill="none" stroke="#9a948a" stroke-width="1.5"/></pattern>
<radialGradient id="gold" cx="40%" cy="35%" r="70%">
 <stop offset="0%" stop-color="#f2d585"/><stop offset="55%" stop-color="#c9a24a"/><stop offset="100%" stop-color="#8c6e2a"/></radialGradient>
<radialGradient id="lampglow" cx="50%" cy="50%" r="50%">
 <stop offset="0%" stop-color="#ffe9b0"/><stop offset="55%" stop-color="#f4cf86" stop-opacity="0.9"/><stop offset="100%" stop-color="#f4cf86" stop-opacity="0"/></radialGradient>
<radialGradient id="crystal" cx="50%" cy="50%" r="50%">
 <stop offset="0%" stop-color="#ffffff"/><stop offset="40%" stop-color="#dce6f0"/><stop offset="100%" stop-color="#9fb0c4"/></radialGradient>
</defs><circle cx="40" cy="40" r="32" fill="none" stroke="#2a2622" stroke-width="2"/><circle cx="40" cy="40" r="22" fill="none" stroke="#2a2622" stroke-width="1.5"/><line x1="40" y1="40" x2="72.0" y2="40.0" stroke="#2a2622" stroke-width="1.3"/><line x1="40" y1="40" x2="67.7" y2="56.0" stroke="#2a2622" stroke-width="1.3"/><line x1="40" y1="40" x2="56.0" y2="67.7" stroke="#2a2622" stroke-width="1.3"/><line x1="40" y1="40" x2="40.0" y2="72.0" stroke="#2a2622" stroke-width="1.3"/><line x1="40" y1="40" x2="24.0" y2="67.7" stroke="#2a2622" stroke-width="1.3"/><line x1="40" y1="40" x2="12.3" y2="56.0" stroke="#2a2622" stroke-width="1.3"/><line x1="40" y1="40" x2="8.0" y2="40.0" stroke="#2a2622" stroke-width="1.3"/><line x1="40" y1="40" x2="12.3" y2="24.0" stroke="#2a2622" stroke-width="1.3"/><line x1="40" y1="40" x2="24.0" y2="12.3" stroke="#2a2622" stroke-width="1.3"/><line x1="40" y1="40" x2="40.0" y2="8.0" stroke="#2a2622" stroke-width="1.3"/><line x1="40" y1="40" x2="56.0" y2="12.3" stroke="#2a2622" stroke-width="1.3"/><line x1="40" y1="40" x2="67.7" y2="24.0" stroke="#2a2622" stroke-width="1.3"/><circle cx="40" cy="40" r="8" fill="url(#lampglow)"/><circle cx="40" cy="40" r="4" fill="#f0d28a"/></svg>