<svg xmlns="http://www.w3.org/2000/svg" viewBox="0 0 100 100"><defs>
<pattern id="tile" width="40" height="40" patternUnits="userSpaceOnUse">
 <rect width="40" height="40" fill="#b8b2a8"/><rect width="40" height="40" fill="none" stroke="#9a948a" stroke-width="1.5"/></pattern>
<radialGradient id="gold" cx="40%" cy="35%" r="70%">
 <stop offset="0%" stop-color="#f2d585"/><stop offset="55%" stop-color="#c9a24a"/><stop offset="100%" stop-color="#8c6e2a"/></radialGradient>
<radialGradient id="lampglow" cx="50%" cy="50%" r="50%">
 <stop offset="0%" stop-color="#ffe9b0"/><stop offset="55%" stop-color="#f4cf86" stop-opacity="0.9"/><stop offset="100%" stop-color="#f4cf86" stop-opacity="0"/></radialGradient>
<radialGradient id="crystal" cx="50%" cy="50%" r="50%">
 <stop offset="0%" stop-color="#ffffff"/><stop offset="40%" stop-color="#dce6f0"/><stop offset="100%" stop-color="#9fb0c4"/></radialGradient>
</defs><circle cx="50" cy="50" r="46" fill="none" stroke="#cbb36a" stroke-width="1" opacity="0.4"/><circle cx="68.0" cy="50.0" r="3.2" fill="url(#crystal)" stroke="#aebccd" stroke-width="0.4"/><circle cx="66.2" cy="57.8" r="3.2" fill="url(#crystal)" stroke="#aebccd" stroke-width="0.4"/><circle cx="61.2" cy="64.1" r="3.2" fill="url(#crystal)" stroke="#aebccd" stroke-width="0.4"/><circle cx="54.0" cy="67.5" r="3.2" fill="url(#crystal)" stroke="#aebccd" stroke-width="0.4"/><circle cx="46.0" cy="67.5" r="3.2" fill="url(#crystal)" stroke="#aebccd" stroke-width="0.4"/><circle cx="38.8" cy="64.1" r="3.2" fill="url(#crystal)" stroke="#aebccd" stroke-width="0.4"/><circle cx="33.8" cy="57.8" r="3.2" fill="url(#crystal)" stroke="#aebccd" stroke-width="0.4"/><circle cx="32.0" cy="50.0" r="3.2" fill="url(#crystal)" stroke="#aebccd" stroke-width="0.4"/><circle cx="33.8" cy="42.2" r="3.2" fill="url(#crystal)" stroke="#aebccd" stroke-width="0.4"/><circle cx="38.8" cy="35.9" r="3.2" fill="url(#crystal)" stroke="#aebccd" stroke-width="0.4"/><circle cx="46.0" cy="32.5" r="3.2" fill="url(#crystal)" stroke="#aebccd" stroke-width="0.4"/><circle cx="54.0" cy="32.5" r="3.2" fill="url(#crystal)" stroke="#aebccd" stroke-width="0.4"/><circle cx="61.2" cy="35.9" r="3.2" fill="url(#crystal)" stroke="#aebccd" stroke-width="0.4"/><circle cx="66.2" cy="42.2" r="3.2" fill="url(#crystal)" stroke="#aebccd" stroke-width="0.4"/><circle cx="80.0" cy="50.0" r="3.2" fill="url(#crystal)" stroke="#aebccd" stroke-width="0.4"/><circle cx="78.5" cy="59.3" r="3.2" fill="url(#crystal)" stroke="#aebccd" stroke-width="0.4"/><circle cx="74.3" cy="67.6" r="3.2" fill="url(#crystal)" stroke="#aebccd" stroke-width="0.4"/><circle cx="67.6" cy="74.3" r="3.2" fill="url(#crystal)" stroke="#aebccd" stroke-width="0.4"/><circle cx="59.3" cy="78.5" r="3.2" fill="url(#crystal)" stroke="#aebccd" stroke-width="0.4"/><circle cx="50.0" cy="80.0" r="3.2" fill="url(#crystal)" stroke="#aebccd" stroke-width="0.4"/><circle cx="40.7" cy="78.5" r="3.2" fill="url(#crystal)" stroke="#aebccd" stroke-width="0.4"/><circle cx="32.4" cy="74.3" r="3.2" fill="url(#crystal)" stroke="#aebccd" stroke-width="0.4"/><circle cx="25.7" cy="67.6" r="3.2" fill="url(#crystal)" stroke="#aebccd" stroke-width="0.4"/><circle cx="21.5" cy="59.3" r="3.2" fill="url(#crystal)" stroke="#aebccd" stroke-width="0.4"/><circle cx="20.0" cy="50.0" r="3.2" fill="url(#crystal)" stroke="#aebccd" stroke-width="0.4"/><circle cx="21.5" cy="40.7" r="3.2" fill="url(#crystal)" stroke="#aebccd" stroke-width="0.4"/><circle cx="25.7" cy="32.4" r="3.2" fill="url(#crystal)" stroke="#aebccd" stroke-width="0.4"/><circle cx="32.4" cy="25.7" r="3.2" fill="url(#crystal)" stroke="#aebccd" stroke-width="0.4"/><circle cx="40.7" cy="21.5" r="3.2" fill="url(#crystal)" stroke="#aebccd" stroke-width="0.4"/><circle cx="50.0" cy="20.0" r="3.2" fill="url(#crystal)" stroke="#aebccd" stroke-width="0.4"/><circle cx="59.3" cy="21.5" r="3.2" fill="url(#crystal)" stroke="#aebccd" stroke-width="0.4"/><circle cx="67.6" cy="25.7" r="3.2" fill="url(#crystal)" stroke="#aebccd" stroke-width="0.4"/><circle cx="74.3" cy="32.4" r="3.2" fill="url(#crystal)" stroke="#aebccd" stroke-width="0.4"/><circle cx="78.5" cy="40.7" r="3.2" fill="url(#crystal)" stroke="#aebccd" stroke-width="0.4"/><circle cx="92.0" cy="50.0" r="3.2" fill="url(#crystal)" stroke="#aebccd" stroke-width="0.4"/><circle cx="90.8" cy="60.1" r="3.2" fill="url(#crystal)" stroke="#aebccd" stroke-width="0.4"/><circle cx="87.2" cy="69.5" r="3.2" fill="url(#crystal)" stroke="#aebccd" stroke-width="0.4"/><circle cx="81.4" cy="77.9" r="3.2" fill="url(#crystal)" stroke="#aebccd" stroke-width="0.4"/><circle cx="73.9" cy="84.6" r="3.2" fill="url(#crystal)" stroke="#aebccd" stroke-width="0.4"/><circle cx="64.9" cy="89.3" r="3.2" fill="url(#crystal)" stroke="#aebccd" stroke-width="0.4"/><circle cx="55.1" cy="91.7" r="3.2" fill="url(#crystal)" stroke="#aebccd" stroke-width="0.4"/><circle cx="44.9" cy="91.7" r="3.2" fill="url(#crystal)" stroke="#aebccd" stroke-width="0.4"/><circle cx="35.1" cy="89.3" r="3.2" fill="url(#crystal)" stroke="#aebccd" stroke-width="0.4"/><circle cx="26.1" cy="84.6" r="3.2" fill="url(#crystal)" stroke="#aebccd" stroke-width="0.4"/><circle cx="18.6" cy="77.9" r="3.2" fill="url(#crystal)" stroke="#aebccd" stroke-width="0.4"/><circle cx="12.8" cy="69.5" r="3.2" fill="url(#crystal)" stroke="#aebccd" stroke-width="0.4"/><circle cx="9.2" cy="60.1" r="3.2" fill="url(#crystal)" stroke="#aebccd" stroke-width="0.4"/><circle cx="8.0" cy="50.0" r="3.2" fill="url(#crystal)" stroke="#aebccd" stroke-width="0.4"/><circle cx="9.2" cy="39.9" r="3.2" fill="url(#crystal)" stroke="#aebccd" stroke-width="0.4"/><circle cx="12.8" cy="30.5" r="3.2" fill="url(#crystal)" stroke="#aebccd" stroke-width="0.4"/><circle cx="18.6" cy="22.1" r="3.2" fill="url(#crystal)" stroke="#aebccd" stroke-width="0.4"/><circle cx="26.1" cy="15.4" r="3.2" fill="url(#crystal)" stroke="#aebccd" stroke-width="0.4"/><circle cx="35.1" cy="10.7" r="3.2" fill="url(#crystal)" stroke="#aebccd" stroke-width="0.4"/><circle cx="44.9" cy="8.3" r="3.2" fill="url(#crystal)" stroke="#aebccd" stroke-width="0.4"/><circle cx="55.1" cy="8.3" r="3.2" fill="url(#crystal)" stroke="#aebccd" stroke-width="0.4"/><circle cx="64.9" cy="10.7" r="3.2" fill="url(#crystal)" stroke="#aebccd" stroke-width="0.4"/><circle cx="73.9" cy="15.4" r="3.2" fill="url(#crystal)" stroke="#aebccd" stroke-width="0.4"/><circle cx="81.4" cy="22.1" r="3.2" fill="url(#crystal)" stroke="#aebccd" stroke-width="0.4"/><circle cx="87.2" cy="30.5" r="3.2" fill="url(#crystal)" stroke="#aebccd" stroke-width="0.4"/><circle cx="90.8" cy="39.9" r="3.2" fill="url(#crystal)" stroke="#aebccd" stroke-width="0.4"/><circle cx="50" cy="50" r="10" fill="url(#gold)" stroke="#8c6e2a"/><circle cx="60.0" cy="50.0" r="2.4" fill="#ffe9b0"/><circle cx="57.1" cy="57.1" r="2.4" fill="#ffe9b0"/><circle cx="50.0" cy="60.0" r="2.4" fill="#ffe9b0"/><circle cx="42.9" cy="57.1" r="2.4" fill="#ffe9b0"/><circle cx="40.0" cy="50.0" r="2.4" fill="#ffe9b0"/><circle cx="42.9" cy="42.9" r="2.4" fill="#ffe9b0"/><circle cx="50.0" cy="40.0" r="2.4" fill="#ffe9b0"/><circle cx="57.1" cy="42.9" r="2.4" fill="#ffe9b0"/></svg>