<svg xmlns="http://www.w3.org/2000/svg" viewBox="0 0 48 48"><defs>
<pattern id="tile" width="40" height="40" patternUnits="userSpaceOnUse">
 <rect width="40" height="40" fill="#b8b2a8"/><rect width="40" height="40" fill="none" stroke="#9a948a" stroke-width="1.5"/></pattern>
<radialGradient id="gold" cx="40%" cy="35%" r="70%">
 <stop offset="0%" stop-color="#f2d585"/><stop offset="55%" stop-color="#c9a24a"/><stop offset="100%" stop-color="#8c6e2a"/></radialGradient>
<radialGradient id="lampglow" cx="50%" cy="50%" r="50%">
 <stop offset="0%" stop-color="#ffe9b0"/><stop offset="55%" stop-color="#f4cf86" stop-opacity="0.9"/><stop offset="100%" stop-color="#f4cf86" stop-opacity="0"/></radialGradient>
<radialGradient id="crystal" cx="50%" cy="50%" r="50%">
 <stop offset="0%" stop-color="#ffffff"/><stop offset="40%" stop-color="#dce6f0"/><stop offset="100%" stop-color="#9fb0c4"/></radialGradient>
</defs><circle cx="24" cy="24" r="6" fill="#2a2622"/><line x1="24" y1="24" x2="42.0" y2="24.0" stroke="#2a2622" stroke-width="2.5"/><circle cx="42.0" cy="24.0" r="3" fill="#3a332c"/><line x1="24" y1="24" x2="33.0" y2="39.6" stroke="#2a2622" stroke-width="2.5"/><circle cx="33.0" cy="39.6" r="3" fill="#3a332c"/><line x1="24" y1="24" x2="15.0" y2="39.6" stroke="#2a2622" stroke-width="2.5"/><circle cx="15.0" cy="39.6" r="3" fill="#3a332c"/><line x1="24" y1="24" x2="6.0" y2="24.0" stroke="#2a2622" stroke-width="2.5"/><circle cx="6.0" cy="24.0" r="3" fill="#3a332c"/><line x1="24" y1="24" x2="15.0" y2="8.4" stroke="#2a2622" stroke-width="2.5"/><circle cx="15.0" cy="8.4" r="3" fill="#3a332c"/><line x1="24" y1="24" x2="33.0" y2="8.4" stroke="#2a2622" stroke-width="2.5"/><circle cx="33.0" cy="8.4" r="3" fill="#3a332c"/></svg>