<svg xmlns="http://www.w3.org/2000/svg" viewBox="0 0 220 140"><defs>
<pattern id="tile" width="40" height="40" patternUnits="userSpaceOnUse">
 <rect width="40" height="40" fill="#b8b2a8"/><rect width="40" height="40" fill="none" stroke="#9a948a" stroke-width="1.5"/></pattern>
<radialGradient id="gold" cx="40%" cy="35%" r="70%">
 <stop offset="0%" stop-color="#f2d585"/><stop offset="55%" stop-color="#c9a24a"/><stop offset="100%" stop-color="#8c6e2a"/></radialGradient>
<radialGradient id="lampglow" cx="50%" cy="50%" r="50%">
 <stop offset="0%" stop-color="#ffe9b0"/><stop offset="55%" stop-color="#f4cf86" stop-opacity="0.9"/><stop offset="100%" stop-color="#f4cf86" stop-opacity="0"/></radialGradient>
<radialGradient id="crystal" cx="50%" cy="50%" r="50%">
 <stop offset="0%" stop-color="#ffffff"/><stop offset="40%" stop-color="#dce6f0"/><stop offset="100%" stop-color="#9fb0c4"/></radialGradient>
</defs><rect x="0" y="0" width="220" height="140" rx="2" fill="#7c2d2d" stroke="#3f1414" stroke-width="3"/><rect x="8" y="8" width="204" height="124" fill="none" stroke="#d8b46a" stroke-width="3"/><rect x="16" y="16" width="188" height="108" fill="#5e2020" stroke="#caa050" stroke-width="1.5"/><ellipse cx="110.0" cy="70.0" rx="39.6" ry="39.2" fill="#caa050" opacity="0.85"/><ellipse cx="110.0" cy="70.0" rx="22.0" ry="22.400000000000002" fill="#7c2d2d"/><line x1="10" y1="2" x2="10" y2="-3" stroke="#3f1414" stroke-width="2"/><line x1="24" y1="2" x2="24" y2="-3" stroke="#3f1414" stroke-width="2"/><line x1="38" y1="2" x2="38" y2="-3" stroke="#3f1414" stroke-width="2"/><line x1="52" y1="2" x2="52" y2="-3" stroke="#3f1414" stroke-width="2"/><line x1="66" y1="2" x2="66" y2="-3" stroke="#3f1414" stroke-width="2"/><line x1="80" y1="2" x2="80" y2="-3" stroke="#3f1414" stroke-width="2"/><line x1="94" y1="2" x2="94" y2="-3" stroke="#3f1414" stroke-width="2"/><line x1="108" y1="2" x2="108" y2="-3" stroke="#3f1414" stroke-width="2"/><line x1="122" y1="2" x2="122" y2="-3" stroke="#3f1414" stroke-width="2"/><line x1="136" y1="2" x2="136" y2="-3" stroke="#3f1414" stroke-width="2"/><line x1="150" y1="2" x2="150" y2="-3" stroke="#3f1414" stroke-width="2"/><line x1="164" y1="2" x2="164" y2="-3" stroke="#3f1414" stroke-width="2"/><line x1="178" y1="2" x2="178" y2="-3" stroke="#3f1414" stroke-width="2"/><line x1="192" y1="2" x2="192" y2="-3" stroke="#3f1414" stroke-width="2"/><line x1="206" y1="2" x2="206" y2="-3" stroke="#3f1414" stroke-width="2"/></svg>